<svg width="24" height="24" viewBox="0 0 24 24" fill="none" xmlns="http://www.w3.org/2000/svg">
<g clip-path="url(#clip0_886_5312)">
<path d="M15.75 13.3534C15.75 13.0941 15.75 12.9645 15.789 12.849C15.9024 12.5133 16.2014 12.3831 16.5008 12.2467C16.8375 12.0933 17.0058 12.0166 17.1726 12.0031C17.362 11.9878 17.5517 12.0286 17.7135 12.1195C17.9281 12.2398 18.0777 12.4687 18.2309 12.6547C18.9384 13.5141 19.2922 13.9438 19.4216 14.4177C19.5261 14.8 19.5261 15.1999 19.4216 15.5823C19.2329 16.2734 18.6364 16.8528 18.1948 17.389C17.969 17.6633 17.8561 17.8005 17.7135 17.8805C17.5517 17.9713 17.362 18.0121 17.1726 17.9968C17.0058 17.9833 16.8375 17.9067 16.5008 17.7533C16.2014 17.6169 15.9024 17.4867 15.789 17.151C15.75 17.0355 15.75 16.9059 15.75 16.6466V13.3534Z" stroke="white" stroke-width="1.3"/>
<path d="M10.125 18.75C11.1605 19.75 12.8395 19.75 13.875 18.75" stroke="white" stroke-width="1.3" stroke-linecap="round" stroke-linejoin="round"/>
<path d="M8.25 13.3534C8.25 13.027 8.24084 12.7336 7.97693 12.5041C7.88095 12.4207 7.75369 12.3627 7.49918 12.2467C7.16251 12.0934 6.99417 12.0168 6.82737 12.0033C6.32693 11.9628 6.05769 12.3043 5.7691 12.6548C5.06156 13.5142 4.7078 13.9438 4.57835 14.4177C4.47388 14.8 4.47388 15.1999 4.57835 15.5823C4.76715 16.2734 5.36364 16.8526 5.80516 17.3889C6.08347 17.7269 6.34933 18.0354 6.82737 17.9967C6.99417 17.9832 7.16251 17.9065 7.49918 17.7532C7.75369 17.6373 7.88095 17.5793 7.97693 17.4958C8.24084 17.2663 8.25 16.973 8.25 16.6465V13.3534Z" stroke="white" stroke-width="1.3"/>
<path d="M4.5 15V12C4.5 7.85786 7.85786 4.5 12 4.5C16.1421 4.5 19.5 7.85786 19.5 12L19.5001 15" stroke="white" stroke-width="1.3" stroke-linecap="round" stroke-linejoin="round"/>
</g>
<defs>
<clipPath id="clip0_886_5312">
<rect width="18" height="18" fill="white" transform="translate(3 3)"/>
</clipPath>
</defs>
</svg>
