<svg width="24" height="24" viewBox="0 0 24 24" fill="none" xmlns="http://www.w3.org/2000/svg">
<path d="M6.40031 8L5.42526 8.65002C4.72629 9.11601 4.3768 9.349 4.1874 9.70433C3.998 10.0597 3.99941 10.4773 4.00221 11.3125C4.00559 12.318 4.01494 13.3426 4.04082 14.3793C4.10221 16.839 4.13291 18.0688 5.03723 18.9731C5.94155 19.8775 7.188 19.9086 9.68089 19.971C11.2318 20.0097 12.7689 20.0097 14.3197 19.971C16.8127 19.9086 18.0591 19.8775 18.9634 18.9731C19.8677 18.0688 19.8984 16.839 19.9598 14.3793C19.9857 13.3426 19.995 12.318 19.9984 11.3125C20.0012 10.4773 20.0026 10.0596 19.8132 9.70433C19.6238 9.349 19.2743 9.11601 18.5753 8.65002L17.6003 8" stroke="white" stroke-width="1.2" stroke-linejoin="round"/>
<path d="M4 10.4L9.53042 13.7183C10.7336 14.4402 11.3352 14.8011 12 14.8011C12.6648 14.8011 13.2664 14.4402 14.4696 13.7183L20 10.4" stroke="white" stroke-width="1.2" stroke-linejoin="round"/>
<path d="M6.40002 12V7.2C6.40002 5.6915 6.40002 4.93726 6.86866 4.46863C7.33729 4 8.09154 4 9.60002 4H14.4C15.9085 4 16.6628 4 17.1314 4.46863C17.6 4.93726 17.6 5.6915 17.6 7.2V12" stroke="white" stroke-width="1.2"/>
<path d="M10.4 10.4H13.6M10.4 7.19995H13.6" stroke="white" stroke-width="1.2" stroke-linecap="round" stroke-linejoin="round"/>
</svg>
